# xmcd
#
# Track frame offsets:
#	150
#	14181
#	31351
#	47813
#	63095
#	78507
#	93371
#	107111
#	120937
#	136894
#	156319
#	175059
#	186232
#
# Disc length: 2724 seconds
#
# Revision: 1
# Processed by: cddbd v1.5.2PL0 Copyright (c) Steve Scherf et al.
# Submitted via: audiograbber 1.83.01
#
DISCID=a80aa20d
DTITLE=Bobby Cash - Cowboy At Heart
DYEAR=2003
DGENRE=Country
TTITLE0=Baby So Are You
TTITLE1=Man Out On The Road
TTITLE2=I Didn`t See You Leaving
TTITLE3=Losing You Again
TTITLE4=Train Train
TTITLE5=In `92
TTITLE6=A Word Away
TTITLE7=Cowboy At Heart
TTITLE8=What Would You Do
TTITLE9=I Only Miss You Now and Then
TTITLE10=Singing Star
TTITLE11=Daddy Sold The Cadillac
TTITLE12=Country Feeling
EXTD=
EXTT0=
EXTT1=
EXTT2=
EXTT3=
EXTT4=
EXTT5=
EXTT6=
EXTT7=
EXTT8=
EXTT9=
EXTT10=
EXTT11=
EXTT12=
PLAYORDER=
